<svg width="72" height="72" viewBox="0 0 72 72" fill="none" xmlns="http://www.w3.org/2000/svg">
<path d="M62.9255 36.5556L60.7084 36.1722L62.9255 36.5556ZM60.8089 48.7949L58.5918 48.4114L60.8089 48.7949ZM20.8133 61.4312L18.5717 61.625L20.8133 61.4312ZM18.3768 33.2532L20.6185 33.0594V33.0594L18.3768 33.2532ZM41.9849 15.6643L44.2052 16.0281V16.0281L41.9849 15.6643ZM39.9968 27.7979L42.2172 28.1617L39.9968 27.7979ZM20.0944 29.0325L18.6256 27.328H18.6256L20.0944 29.0325ZM24.4106 25.3131L25.8794 27.0175L25.8794 27.0175L24.4106 25.3131ZM31.5542 14.3512L29.3762 13.7863V13.7863L31.5542 14.3512ZM32.9813 8.84967L35.1592 9.41463L35.1592 9.41462L32.9813 8.84967ZM38.0028 6.19306L37.3146 8.33524L37.3146 8.33524L38.0028 6.19306ZM38.4377 6.33278L39.1259 4.1906L39.1259 4.1906L38.4377 6.33278ZM29.5858 19.3878L31.5704 20.448L29.5858 19.3878ZM41.714 9.74257L39.5361 10.3075V10.3075L41.714 9.74257ZM35.0226 6.39718L34.0459 4.37024V4.37024L35.0226 6.39718ZM11.9148 64.4122L9.67316 64.606L11.9148 64.4122ZM9 30.7026L11.2416 30.5088C11.1378 29.3083 10.1068 28.4027 8.903 28.4547C7.6992 28.5066 6.75 29.4977 6.75 30.7026H9ZM60.7084 36.1722L58.5918 48.4114L63.026 49.1783L65.1426 36.939L60.7084 36.1722ZM39.7349 63.75H25.789V68.25H39.7349V63.75ZM23.055 61.2374L20.6185 33.0594L16.1352 33.447L18.5717 61.625L23.055 61.2374ZM58.5918 48.4114C57.0714 57.2032 49.1438 63.75 39.7349 63.75V68.25C51.2137 68.25 61.1124 60.2431 63.026 49.1783L58.5918 48.4114ZM39.7645 15.3005L37.7764 27.4341L42.2172 28.1617L44.2052 16.0281L39.7645 15.3005ZM21.5632 30.7369L25.8794 27.0175L22.9419 23.6086L18.6256 27.328L21.5632 30.7369ZM33.7321 14.9162L35.1592 9.41463L30.8034 8.28471L29.3762 13.7863L33.7321 14.9162ZM37.3146 8.33524L37.7495 8.47495L39.1259 4.1906L38.691 4.05089L37.3146 8.33524ZM31.5704 20.448C32.5063 18.6959 33.233 16.8402 33.7321 14.9162L29.3762 13.7863C28.9672 15.3632 28.371 16.8868 27.6012 18.3277L31.5704 20.448ZM37.7495 8.47495C38.6688 8.77026 39.3215 9.48026 39.5361 10.3075L43.892 9.17762C43.2756 6.80158 41.4569 4.93944 39.1259 4.1906L37.7495 8.47495ZM35.1592 9.41462C35.2643 9.00961 35.5568 8.63738 35.9993 8.42412L34.0459 4.37024C32.4499 5.13928 31.2511 6.5588 30.8034 8.28471L35.1592 9.41462ZM35.9993 8.42412C36.4036 8.22933 36.8794 8.19544 37.3146 8.33524L38.691 4.05089C37.1618 3.55964 35.4936 3.67259 34.0459 4.37024L35.9993 8.42412ZM42.4611 32.9526H58.0043V28.4526H42.4611V32.9526ZM14.1564 64.2183L11.2416 30.5088L6.75836 30.8964L9.67316 64.606L14.1564 64.2183ZM11.25 64.5382V30.7026H6.75V64.5382H11.25ZM9.67316 64.606C9.63359 64.1483 9.99437 63.75 10.4601 63.75V68.25C12.638 68.25 14.3437 66.3837 14.1564 64.2183L9.67316 64.606ZM44.2052 16.0281C44.5789 13.7477 44.4722 11.4143 43.892 9.17761L39.5361 10.3075C39.959 11.9377 40.0368 13.6384 39.7645 15.3005L44.2052 16.0281ZM25.789 63.75C24.3673 63.75 23.178 62.6609 23.055 61.2374L18.5717 61.625C18.8956 65.3707 22.0281 68.25 25.789 68.25V63.75ZM25.8794 27.0175C27.919 25.26 30.1175 23.168 31.5704 20.448L27.6012 18.3277C26.5621 20.273 24.9075 21.9148 22.9419 23.6086L25.8794 27.0175ZM65.1426 36.939C65.9086 32.5095 62.5022 28.4526 58.0043 28.4526V32.9526C59.7043 32.9526 60.9997 34.4877 60.7084 36.1722L65.1426 36.939ZM10.4601 63.75C10.8988 63.75 11.25 64.1053 11.25 64.5382H6.75C6.75 66.5858 8.40867 68.25 10.4601 68.25V63.75ZM37.7764 27.4341C37.3032 30.3227 39.5297 32.9526 42.4611 32.9526V28.4526C42.3114 28.4526 42.1918 28.317 42.2172 28.1617L37.7764 27.4341ZM20.6185 33.0594C20.5422 32.1775 20.8942 31.3134 21.5632 30.7369L18.6256 27.328C16.8607 28.8489 15.9345 31.1259 16.1352 33.447L20.6185 33.0594Z" fill="#0079FF"/>
</svg>
