<svg width="72" height="72" viewBox="0 0 72 72" fill="none" xmlns="http://www.w3.org/2000/svg">
<path d="M29.344 11.6723C31.0356 10.2307 31.8814 9.5099 32.7657 9.08722C34.8111 8.1096 37.1889 8.1096 39.2343 9.08722C40.1187 9.5099 40.9645 10.2307 42.6561 11.6723C43.3294 12.246 43.666 12.5329 44.0255 12.7739C44.8496 13.3263 45.7752 13.7096 46.7485 13.9018C47.1732 13.9856 47.614 14.0208 48.4958 14.0912C50.7113 14.268 51.8191 14.3564 52.7433 14.6828C54.8809 15.4378 56.5622 17.1192 57.3173 19.2568C57.6437 20.181 57.7321 21.2887 57.9089 23.5043C57.9793 24.386 58.0144 24.8269 58.0983 25.2515C58.2904 26.2249 58.6738 27.1504 59.2262 27.9746C59.4672 28.3341 59.754 28.6707 60.3278 29.344C61.7694 31.0356 62.4902 31.8814 62.9129 32.7657C63.8905 34.8111 63.8905 37.1889 62.9129 39.2343C62.4902 40.1187 61.7694 40.9645 60.3278 42.6561C59.754 43.3294 59.4672 43.666 59.2262 44.0255C58.6738 44.8497 58.2904 45.7752 58.0983 46.7485C58.0144 47.1732 57.9793 47.614 57.9089 48.4958C57.7321 50.7113 57.6437 51.8191 57.3173 52.7433C56.5622 54.8809 54.8809 56.5622 52.7433 57.3173C51.8191 57.6437 50.7113 57.7321 48.4958 57.9089C47.614 57.9793 47.1732 58.0144 46.7485 58.0983C45.7752 58.2904 44.8497 58.6738 44.0255 59.2262C43.666 59.4672 43.3294 59.754 42.6561 60.3278C40.9645 61.7694 40.1187 62.4902 39.2343 62.9129C37.1889 63.8905 34.8111 63.8905 32.7657 62.9129C31.8814 62.4902 31.0356 61.7694 29.344 60.3278C28.6707 59.754 28.3341 59.4672 27.9746 59.2262C27.1504 58.6738 26.2249 58.2904 25.2515 58.0983C24.8269 58.0144 24.386 57.9793 23.5043 57.9089C21.2887 57.7321 20.181 57.6437 19.2568 57.3173C17.1192 56.5622 15.4378 54.8809 14.6828 52.7433C14.3564 51.8191 14.268 50.7113 14.0912 48.4958C14.0208 47.614 13.9856 47.1732 13.9018 46.7485C13.7096 45.7752 13.3263 44.8496 12.7739 44.0255C12.5329 43.666 12.246 43.3294 11.6723 42.6561C10.2307 40.9645 9.5099 40.1187 9.08722 39.2343C8.1096 37.1889 8.1096 34.8111 9.08722 32.7657C9.5099 31.8814 10.2307 31.0356 11.6723 29.344C12.246 28.6707 12.5329 28.3341 12.7739 27.9746C13.3263 27.1504 13.7096 26.2249 13.9018 25.2515C13.9856 24.8269 14.0208 24.386 14.0912 23.5043C14.268 21.2887 14.3564 20.181 14.6828 19.2568C15.4378 17.1192 17.1192 15.4378 19.2568 14.6828C20.181 14.3564 21.2887 14.268 23.5043 14.0912C24.386 14.0208 24.8269 13.9856 25.2515 13.9018C26.2249 13.7096 27.1504 13.3263 27.9746 12.7739C28.3341 12.5329 28.6707 12.246 29.344 11.6723Z" stroke="#0079FF" stroke-width="4.5"/>
<path d="M25.5 37.5L31.5 43.5L46.5 28.5" stroke="#0079FF" stroke-width="4.5" stroke-linecap="round" stroke-linejoin="round"/>
</svg>
