<svg width="72" height="72" viewBox="0 0 72 72" fill="none" xmlns="http://www.w3.org/2000/svg">
<path d="M56.9313 15.0687L58.5223 13.4777L56.9313 15.0687ZM56.9313 44.3712L58.5223 45.9622L56.9313 44.3712ZM21.4367 38.0051L19.8458 36.4141L19.8458 36.4141L21.4367 38.0051ZM10.3005 49.1413L11.8915 50.7323H11.8915L10.3005 49.1413ZM22.8587 61.6995L21.2677 60.1085H21.2677L22.8587 61.6995ZM33.9958 50.5624L32.4048 48.9714L33.9958 50.5624ZM9.02719 52.7712L6.79095 53.0197L6.79095 53.0197L9.02719 52.7712ZM9.72338 59.037L7.48715 59.2854L7.48715 59.2854L9.72338 59.037ZM12.963 62.2766L12.7146 64.5129H12.7146L12.963 62.2766ZM19.2288 62.9728L19.4773 60.7366H19.4773L19.2288 62.9728ZM10.5722 60.8031L12.1632 59.2121L12.1632 59.2121L10.5722 60.8031ZM11.1969 61.4278L9.60588 63.0187L9.60589 63.0188L11.1969 61.4278ZM22.213 34.8934L20.0337 35.453L22.213 34.8934ZM37.1066 49.787L36.547 51.9663H36.547L37.1066 49.787ZM22.915 51.1889C22.0315 50.315 20.6069 50.3229 19.733 51.2064C18.8592 52.0899 18.867 53.5145 19.7505 54.3883L22.915 51.1889ZM39.3484 32.6516C37.8839 31.1872 37.8839 28.8128 39.3484 27.3483L36.1664 24.1664C32.9445 27.3882 32.9445 32.6118 36.1664 35.8336L39.3484 32.6516ZM44.6516 32.6516C43.1872 34.1161 40.8128 34.1161 39.3484 32.6516L36.1664 35.8336C39.3882 39.0555 44.6118 39.0555 47.8336 35.8336L44.6516 32.6516ZM44.6516 27.3483C46.1161 28.8128 46.1161 31.1872 44.6516 32.6516L47.8336 35.8336C51.0555 32.6118 51.0555 27.3882 47.8336 24.1664L44.6516 27.3483ZM47.8336 24.1664C44.6118 20.9445 39.3882 20.9445 36.1664 24.1664L39.3484 27.3483C40.8128 25.8839 43.1872 25.8839 44.6516 27.3483L47.8336 24.1664ZM55.3403 16.6597C62.5532 23.8727 62.5532 35.5672 55.3403 42.7802L58.5223 45.9622C67.4926 36.9918 67.4926 22.4481 58.5223 13.4777L55.3403 16.6597ZM58.5223 13.4777C49.5519 4.50742 35.0082 4.50742 26.0378 13.4777L29.2198 16.6597C36.4328 9.44676 48.1273 9.44676 55.3403 16.6597L58.5223 13.4777ZM19.8458 36.4141L8.70949 47.5503L11.8915 50.7323L23.0277 39.5961L19.8458 36.4141ZM24.4497 63.2905L28.1709 59.5693L24.9889 56.3873L21.2677 60.1085L24.4497 63.2905ZM28.1709 59.5693L35.5868 52.1534L32.4048 48.9714L24.9889 56.3873L28.1709 59.5693ZM6.79095 53.0197L7.48715 59.2854L11.9596 58.7885L11.2634 52.5227L6.79095 53.0197ZM12.7146 64.5129L18.9803 65.2091L19.4773 60.7366L13.2115 60.0404L12.7146 64.5129ZM8.98124 62.3941L9.60588 63.0187L12.7879 59.8368L12.1632 59.2121L8.98124 62.3941ZM13.2115 60.0404C13.0513 60.0226 12.9019 59.9508 12.7879 59.8368L9.60589 63.0188C10.4424 63.8553 11.5388 64.3822 12.7146 64.5129L13.2115 60.0404ZM7.48715 59.2854C7.61779 60.4612 8.14471 61.5576 8.98125 62.3941L12.1632 59.2121C12.0492 59.0981 11.9774 58.9487 11.9596 58.7885L7.48715 59.2854ZM21.2677 60.1085C20.7973 60.579 20.1385 60.81 19.4773 60.7366L18.9803 65.2091C21.0002 65.4335 23.0126 64.7276 24.4497 63.2905L21.2677 60.1085ZM8.70949 47.5503C7.27243 48.9874 6.56652 50.9998 6.79095 53.0197L11.2634 52.5227C11.19 51.8615 11.421 51.2028 11.8915 50.7323L8.70949 47.5503ZM24.3922 34.3337C22.8197 28.2099 24.4324 21.4472 29.2198 16.6597L26.0378 13.4777C20.0796 19.4359 18.0817 27.852 20.0337 35.453L24.3922 34.3337ZM55.3403 42.7802C50.5528 47.5676 43.7901 49.1803 37.6663 47.6078L36.547 51.9663C44.148 53.9183 52.5641 51.9204 58.5223 45.9622L55.3403 42.7802ZM35.5868 52.1534C35.7542 51.986 36.0973 51.8509 36.547 51.9663L37.6663 47.6078C35.9024 47.1548 33.8534 47.5228 32.4048 48.9714L35.5868 52.1534ZM23.0277 39.5961C24.4757 38.1481 24.8455 36.0986 24.3922 34.3337L20.0337 35.453C20.1489 35.9017 20.0138 36.246 19.8458 36.4141L23.0277 39.5961ZM28.1621 56.3786L22.915 51.1889L19.7505 54.3883L24.9977 59.578L28.1621 56.3786Z" fill="#0079FF"/>
</svg>
