<svg width="72" height="72" viewBox="0 0 72 72" fill="none" xmlns="http://www.w3.org/2000/svg">
<path d="M66 66L6 66" stroke="#0079FF" stroke-width="4.5" stroke-linecap="round"/>
<path d="M6 32.9998L30.3777 13.4976C33.6647 10.868 38.3353 10.868 41.6223 13.4976L66 32.9998" stroke="#0079FF" stroke-width="4.5" stroke-linecap="round"/>
<path d="M46.5 16.5V10.5C46.5 9.67157 47.1716 9 48 9H55.5C56.3284 9 57 9.67157 57 10.5V25.5" stroke="#0079FF" stroke-width="4.5" stroke-linecap="round"/>
<path d="M12 66V28.5" stroke="#0079FF" stroke-width="4.5" stroke-linecap="round"/>
<path d="M60 66V28.5" stroke="#0079FF" stroke-width="4.5" stroke-linecap="round"/>
<path d="M45 66V51C45 46.7574 45 44.636 43.682 43.318C42.364 42 40.2426 42 36 42C31.7574 42 29.636 42 28.318 43.318C27 44.636 27 46.7574 27 51V66" stroke="#0079FF" stroke-width="4.5"/>
<path d="M42 28.5C42 31.8137 39.3137 34.5 36 34.5C32.6863 34.5 30 31.8137 30 28.5C30 25.1863 32.6863 22.5 36 22.5C39.3137 22.5 42 25.1863 42 28.5Z" stroke="#0079FF" stroke-width="4.5"/>
</svg>
