<svg width="72" height="72" viewBox="0 0 72 72" fill="none" xmlns="http://www.w3.org/2000/svg">
<circle cx="36" cy="36" r="30" stroke="#0079FF" stroke-width="4.5"/>
<circle cx="36" cy="36" r="9" stroke="#0079FF" stroke-width="4.5"/>
<path d="M6 39C6 39 12.6026 45 18 45C21.636 45 25.8188 42.2772 28.1618 40.5" stroke="#0079FF" stroke-width="4.5"/>
<path d="M42 42.6708C43.4139 43.9168 45.2625 45 47.416 45C52.4844 45 52.4844 39 57.5527 39C60.7853 39 63.3307 41.4407 64.7505 43.2088" stroke="#0079FF" stroke-width="4.5"/>
<path d="M43.5 21L48 15" stroke="#0079FF" stroke-width="4.5" stroke-linecap="round"/>
<path d="M57 21L60 18" stroke="#0079FF" stroke-width="4.5" stroke-linecap="round"/>
<path d="M36 15L33 12" stroke="#0079FF" stroke-width="4.5" stroke-linecap="round"/>
<path d="M31.5 21L27.4019 22.0981" stroke="#0079FF" stroke-width="4.5" stroke-linecap="round"/>
<path d="M49.9497 26.9293L50.1489 31.1673" stroke="#0079FF" stroke-width="4.5" stroke-linecap="round"/>
<path d="M62.0331 30.2551L56.9989 34.6886" stroke="#0079FF" stroke-width="4.5" stroke-linecap="round"/>
<path d="M21 15L18 12" stroke="#0079FF" stroke-width="4.5" stroke-linecap="round"/>
<path d="M20.3773 27.4316L18.6217 23.5692" stroke="#0079FF" stroke-width="4.5" stroke-linecap="round"/>
<path d="M16.9948 37.9242L19.5005 34.5005" stroke="#0079FF" stroke-width="4.5" stroke-linecap="round"/>
<path d="M11.0481 31.049L10.8121 26.8129" stroke="#0079FF" stroke-width="4.5" stroke-linecap="round"/>
</svg>
