<svg width="72" height="72" viewBox="0 0 72 72" fill="none" xmlns="http://www.w3.org/2000/svg">
<path d="M48 66V24C48 15.5147 48 11.2721 45.364 8.63604C42.7279 6 38.4853 6 30 6H27C18.5147 6 14.2721 6 11.636 8.63604C9 11.2721 9 15.5147 9 24V66" stroke="#0079FF" stroke-width="4.5"/>
<path d="M33 18H24C21.1716 18 19.7574 18 18.8787 18.8787C18 19.7574 18 21.1716 18 24C18 26.8284 18 28.2426 18.8787 29.1213C19.7574 30 21.1716 30 24 30H33C35.8284 30 37.2426 30 38.1213 29.1213C39 28.2426 39 26.8284 39 24C39 21.1716 39 19.7574 38.1213 18.8787C37.2426 18 35.8284 18 33 18Z" stroke="#0079FF" stroke-width="4.5"/>
<path d="M21 51H36" stroke="#0079FF" stroke-width="4.5" stroke-linecap="round"/>
<path d="M51 66H6" stroke="#0079FF" stroke-width="4.5" stroke-linecap="round"/>
<path d="M58.5 12L62.1993 14.9594C62.6127 15.2902 62.8195 15.4556 63.0075 15.6241C64.7812 17.2142 65.8523 19.4426 65.9858 21.8209C66 22.0731 66 22.3378 66 22.8673V55.5C66 57.9853 63.9853 60 61.5 60C59.0147 60 57 57.9853 57 55.5V55.2857C57 52.9188 55.0812 51 52.7143 51H48" stroke="#0079FF" stroke-width="4.5" stroke-linecap="round"/>
<path d="M66 24H61.5C59.0147 24 57 26.0147 57 28.5V35.7566C57 37.6935 58.2394 39.4131 60.077 40.0257L66 42" stroke="#0079FF" stroke-width="4.5" stroke-linecap="round"/>
</svg>
