<svg width="72" height="72" viewBox="0 0 72 72" fill="none" xmlns="http://www.w3.org/2000/svg">
<path d="M23.5292 11.4063C29.6154 7.80211 32.6585 6 36 6C39.3415 6 42.3846 7.80211 48.4708 11.4063L50.5292 12.6254C56.6154 16.2296 59.6585 18.0317 61.3292 21C63 23.9683 63 27.5725 63 34.781V37.219C63 44.4275 63 48.0317 61.3292 51C59.6585 53.9683 56.6154 55.7704 50.5292 59.3746L48.4708 60.5937C42.3846 64.1979 39.3415 66 36 66C32.6585 66 29.6154 64.1979 23.5292 60.5937L21.4708 59.3746C15.3846 55.7704 12.3415 53.9683 10.6708 51C9 48.0317 9 44.4275 9 37.219V34.781C9 27.5725 9 23.9683 10.6708 21C12.3415 18.0317 15.3846 16.2296 21.4708 12.6254L23.5292 11.4063Z" stroke="#0079FF" stroke-width="4.5"/>
<circle cx="36" cy="36" r="9" stroke="#0079FF" stroke-width="4.5"/>
</svg>
