<svg width="72" height="72" viewBox="0 0 72 72" fill="none" xmlns="http://www.w3.org/2000/svg">
<path d="M43.5 19.5H52.5M52.5 19.5H61.5M52.5 19.5V28.5M52.5 19.5V10.5" stroke="white" stroke-width="4.5" stroke-linecap="round"/>
<path d="M7.5 19.5C7.5 13.8431 7.5 11.0147 9.25736 9.25736C11.0147 7.5 13.8431 7.5 19.5 7.5C25.1569 7.5 27.9853 7.5 29.7426 9.25736C31.5 11.0147 31.5 13.8431 31.5 19.5C31.5 25.1569 31.5 27.9853 29.7426 29.7426C27.9853 31.5 25.1569 31.5 19.5 31.5C13.8431 31.5 11.0147 31.5 9.25736 29.7426C7.5 27.9853 7.5 25.1569 7.5 19.5Z" stroke="white" stroke-width="4.5"/>
<path d="M40.5 52.5C40.5 46.8431 40.5 44.0147 42.2574 42.2574C44.0147 40.5 46.8431 40.5 52.5 40.5C58.1569 40.5 60.9853 40.5 62.7426 42.2574C64.5 44.0147 64.5 46.8431 64.5 52.5C64.5 58.1569 64.5 60.9853 62.7426 62.7426C60.9853 64.5 58.1569 64.5 52.5 64.5C46.8431 64.5 44.0147 64.5 42.2574 62.7426C40.5 60.9853 40.5 58.1569 40.5 52.5Z" stroke="white" stroke-width="4.5"/>
<path d="M7.5 52.5C7.5 46.8431 7.5 44.0147 9.25736 42.2574C11.0147 40.5 13.8431 40.5 19.5 40.5C25.1569 40.5 27.9853 40.5 29.7426 42.2574C31.5 44.0147 31.5 46.8431 31.5 52.5C31.5 58.1569 31.5 60.9853 29.7426 62.7426C27.9853 64.5 25.1569 64.5 19.5 64.5C13.8431 64.5 11.0147 64.5 9.25736 62.7426C7.5 60.9853 7.5 58.1569 7.5 52.5Z" stroke="white" stroke-width="4.5"/>
</svg>
