<svg width="37" height="37" viewBox="0 0 37 37" fill="none" xmlns="http://www.w3.org/2000/svg">
<g clip-path="url(#clip0_646_2979)">
<circle cx="19" cy="19" r="14" fill="#FFFBFB"/>
<path d="M22.7461 10.661H14.2539C13.7821 10.661 13.3149 10.7539 12.879 10.9345C12.443 11.115 12.047 11.3797 11.7133 11.7133C11.3797 12.0469 11.115 12.443 10.9345 12.8789C10.7539 13.3148 10.661 13.7821 10.661 14.2539V22.7461C10.661 23.699 11.0395 24.6129 11.7133 25.2867C12.047 25.6203 12.4431 25.885 12.879 26.0655C13.3149 26.2461 13.7821 26.339 14.2539 26.339H22.7461C23.699 26.339 24.6129 25.9604 25.2867 25.2866C25.9604 24.6128 26.339 23.699 26.339 22.7461V14.2539C26.339 13.7821 26.2461 13.3149 26.0655 12.8789C25.8849 12.443 25.6203 12.047 25.2867 11.7133C24.953 11.3797 24.557 11.115 24.1211 10.9345C23.6852 10.7539 23.218 10.661 22.7461 10.661ZM18.5 23.4423C17.5225 23.4423 16.567 23.1525 15.7542 22.6094C14.9415 22.0663 14.308 21.2944 13.9339 20.3913C13.5598 19.4882 13.462 18.4945 13.6527 17.5358C13.8434 16.5771 14.3141 15.6964 15.0053 15.0052C15.6965 14.3141 16.5771 13.8433 17.5358 13.6526C18.4945 13.4619 19.4883 13.5598 20.3914 13.9339C21.2945 14.308 22.0663 14.9414 22.6094 15.7542C23.1525 16.567 23.4423 17.5225 23.4423 18.5C23.4423 19.149 23.3145 19.7917 23.0661 20.3913C22.8178 20.991 22.4537 21.5358 21.9948 21.9947C21.5358 22.4537 20.991 22.8177 20.3914 23.0661C19.7917 23.3145 19.1491 23.4423 18.5 23.4423ZM23.6484 14.5673C23.4158 14.5673 23.1885 14.4984 22.9951 14.3692C22.8017 14.24 22.651 14.0563 22.562 13.8415C22.473 13.6266 22.4497 13.3902 22.4951 13.1621C22.5404 12.934 22.6524 12.7245 22.8168 12.5601C22.9813 12.3956 23.1908 12.2836 23.4189 12.2382C23.647 12.1929 23.8834 12.2161 24.0983 12.3051C24.3131 12.3941 24.4968 12.5448 24.626 12.7382C24.7552 12.9316 24.8241 13.1589 24.8241 13.3915C24.8241 13.7033 24.7003 14.0024 24.4798 14.2229C24.2593 14.4434 23.9602 14.5673 23.6484 14.5673Z" fill="url(#paint0_linear_646_2979)"/>
<path d="M18.5 15.2874C17.8647 15.2874 17.2435 15.4758 16.7152 15.8288C16.1869 16.1818 15.7752 16.6836 15.532 17.2706C15.2889 17.8576 15.2252 18.5036 15.3492 19.1267C15.4732 19.7499 15.7791 20.3223 16.2284 20.7716C16.6777 21.2209 17.2501 21.5269 17.8733 21.6508C18.4965 21.7748 19.1424 21.7112 19.7294 21.468C20.3165 21.2249 20.8182 20.8131 21.1712 20.2848C21.5242 19.7565 21.7126 19.1354 21.7126 18.5C21.7126 17.648 21.3741 16.8308 20.7717 16.2284C20.1692 15.6259 19.3521 15.2874 18.5 15.2874Z" fill="url(#paint1_linear_646_2979)"/>
<path d="M18.5 0C8.28273 0 0 8.28273 0 18.5C0 28.7173 8.28273 37 18.5 37C28.7173 37 37 28.7173 37 18.5C37 8.28273 28.7173 0 18.5 0ZM28.1354 22.583C28.1353 24.0556 27.5503 25.4678 26.5091 26.5091C25.4678 27.5503 24.0556 28.1353 22.583 28.1354H14.417C12.9444 28.1353 11.5322 27.5503 10.4909 26.5091C9.44963 25.4678 8.86461 24.0556 8.86454 22.583V14.417C8.86459 12.9444 9.4496 11.5322 10.4909 10.4909C11.5322 9.44964 12.9444 8.86465 14.417 8.86461H22.583C24.0556 8.86467 25.4678 9.44967 26.5091 10.4909C27.5503 11.5322 28.1353 12.9444 28.1354 14.417V22.583Z" fill="url(#paint2_linear_646_2979)"/>
</g>
<defs>
<linearGradient id="paint0_linear_646_2979" x1="0.578149" y1="36.4219" x2="36.5899" y2="0.410102" gradientUnits="userSpaceOnUse">
<stop stop-color="#FFCB52"/>
<stop offset="0.318" stop-color="#FF6341"/>
<stop offset="0.658" stop-color="#CD39A2"/>
<stop offset="1" stop-color="#515BCA"/>
</linearGradient>
<linearGradient id="paint1_linear_646_2979" x1="0.578172" y1="36.4219" x2="36.5899" y2="0.410109" gradientUnits="userSpaceOnUse">
<stop stop-color="#FFCB52"/>
<stop offset="0.318" stop-color="#FF6341"/>
<stop offset="0.658" stop-color="#CD39A2"/>
<stop offset="1" stop-color="#515BCA"/>
</linearGradient>
<linearGradient id="paint2_linear_646_2979" x1="0.578125" y1="36.4219" x2="36.5899" y2="0.410108" gradientUnits="userSpaceOnUse">
<stop stop-color="#FFCB52"/>
<stop offset="0.318" stop-color="#FF6341"/>
<stop offset="0.658" stop-color="#CD39A2"/>
<stop offset="1" stop-color="#515BCA"/>
</linearGradient>
<clipPath id="clip0_646_2979">
<rect width="37" height="37" fill="white"/>
</clipPath>
</defs>
</svg>
