<svg width="72" height="72" viewBox="0 0 72 72" fill="none" xmlns="http://www.w3.org/2000/svg">
<circle cx="36" cy="36" r="9" stroke="#0079FF" stroke-width="4.5"/>
<path d="M41.2975 6.45672C40.1949 6 38.7971 6 36.0014 6C33.2058 6 31.808 6 30.7053 6.45672C29.2352 7.06569 28.0671 8.23373 27.4582 9.7039C27.1802 10.375 27.0714 11.1555 27.0288 12.294C26.9662 13.967 26.1082 15.5157 24.6583 16.3528C23.2084 17.1899 21.4382 17.1586 19.958 16.3763C18.9508 15.8439 18.2205 15.5479 17.5003 15.453C15.9226 15.2453 14.327 15.6729 13.0645 16.6416C12.1177 17.3681 11.4188 18.5787 10.021 20.9998C8.62314 23.4209 7.92422 24.6315 7.76844 25.8147C7.56074 27.3924 7.98827 28.988 8.95699 30.2504C9.39915 30.8267 10.0206 31.3111 10.985 31.9171C12.4029 32.808 13.3151 34.3256 13.315 36.0001C13.315 37.6744 12.4027 39.1918 10.985 40.0825C10.0204 40.6886 9.3989 41.1731 8.9567 41.7494C7.98798 43.0118 7.56045 44.6074 7.76815 46.1851C7.92393 47.3683 8.62284 48.5789 10.0207 51C11.4185 53.4211 12.1174 54.6317 13.0643 55.3582C14.3267 56.3269 15.9223 56.7544 17.5 56.5467C18.2201 56.4519 18.9504 56.1559 19.9576 55.6236C21.4379 54.8412 23.2081 54.8099 24.6582 55.6471C26.1082 56.4843 26.9662 58.033 27.0288 59.7062C27.0714 60.8446 27.1802 61.625 27.4582 62.2961C28.0671 63.7663 29.2352 64.9343 30.7053 65.5433C31.808 66 33.2058 66 36.0014 66C38.7971 66 40.1949 66 41.2975 65.5433C42.7677 64.9343 43.9357 63.7663 44.5447 62.2961C44.8227 61.625 44.9315 60.8444 44.9741 59.7059C45.0366 58.0329 45.8946 56.4843 47.3444 55.6471C48.7944 54.8098 50.5647 54.8411 52.0451 55.6235C53.0522 56.1557 53.7824 56.4517 54.5026 56.5465C56.0803 56.7542 57.6759 56.3267 58.9383 55.358C59.8852 54.6315 60.5841 53.4209 61.9819 50.9998C63.3797 48.5787 64.0786 47.3681 64.2344 46.1849C64.4421 44.6072 64.0146 43.0116 63.0459 41.7492C62.6037 41.1729 61.9822 40.6885 61.0177 40.0824C59.5999 39.1916 58.6877 37.6741 58.6878 35.9997C58.6879 34.3255 59.6001 32.8083 61.0177 31.9176C61.9824 31.3114 62.6039 30.827 63.0462 30.2506C64.0149 28.9882 64.4424 27.3926 64.2347 25.8149C64.0789 24.6317 63.38 23.4211 61.9822 21C60.5844 18.5789 59.8855 17.3683 58.9386 16.6418C57.6761 15.6731 56.0806 15.2455 54.5029 15.4533C53.7827 15.5481 53.0524 15.8441 52.0453 16.3764C50.565 17.1588 48.7947 17.1901 47.3447 16.3529C45.8947 15.5157 45.0366 13.967 44.9741 12.2938C44.9315 11.1554 44.8227 10.375 44.5447 9.7039C43.9357 8.23373 42.7677 7.06569 41.2975 6.45672Z" stroke="#0079FF" stroke-width="4.5"/>
</svg>
