<svg width="72" height="72" viewBox="0 0 72 72" fill="none" xmlns="http://www.w3.org/2000/svg">
<path d="M46.7331 10.1459L52.7331 13.2946C59.1881 16.682 62.4156 18.3757 64.2078 21.4192C66 24.4627 66 28.25 66 35.8245V36.1755C66 43.75 66 47.5373 64.2078 50.5808C62.4156 53.6243 59.1881 55.318 52.7331 58.7054L46.7331 61.8541C41.4663 64.618 38.8328 66 36 66C33.1672 66 30.5337 64.618 25.2669 61.8541L19.2669 58.7055C12.8119 55.318 9.58438 53.6243 7.79219 50.5808C6 47.5373 6 43.75 6 36.1755V35.8245C6 28.25 6 24.4627 7.79219 21.4192C9.58438 18.3757 12.8119 16.682 19.2669 13.2946L25.2669 10.1459C30.5337 7.38197 33.1672 6 36 6C38.8328 6 41.4663 7.38197 46.7331 10.1459Z" stroke="#0079FF" stroke-width="4.5" stroke-linecap="round"/>
<path d="M63 22.5L36 36M36 36L9 22.5M36 36V64.5" stroke="#0079FF" stroke-width="4.5" stroke-linecap="round"/>
</svg>
