<svg width="37" height="37" viewBox="0 0 37 37" fill="none" xmlns="http://www.w3.org/2000/svg">
<g clip-path="url(#clip0_646_2984)">
<path d="M18.5 37C28.7172 37 37 28.7172 37 18.5C37 8.28276 28.7172 0 18.5 0C8.28276 0 0 8.28276 0 18.5C0 28.7172 8.28276 37 18.5 37Z" fill="url(#paint0_linear_646_2984)"/>
<path d="M6.88984 19.405C9.05247 18.2137 11.4666 17.2195 13.7222 16.2202C17.6027 14.5834 21.4987 12.975 25.4339 11.4775C26.1996 11.2224 27.5753 10.9729 27.7102 12.1075C27.6363 13.7137 27.3325 15.3104 27.124 16.9071C26.595 20.4184 25.9836 23.9176 25.3874 27.4174C25.1819 28.5831 23.7216 29.1866 22.7872 28.4406C20.5416 26.9237 18.2787 25.4217 16.0618 23.8697C15.3356 23.1318 16.009 22.0721 16.6576 21.5452C18.5071 19.7225 20.4686 18.1739 22.2215 16.2569C22.6943 15.1151 21.2972 16.0774 20.8364 16.3723C18.3044 18.1171 15.8343 19.9685 13.1648 21.502C11.8012 22.2526 10.2119 21.6112 8.8489 21.1923C7.6268 20.6863 5.83611 20.1765 6.88984 19.405Z" fill="white"/>
</g>
<defs>
<linearGradient id="paint0_linear_646_2984" x1="13.8772" y1="1.5429" x2="4.62716" y2="23.125" gradientUnits="userSpaceOnUse">
<stop stop-color="#37AEE2"/>
<stop offset="1" stop-color="#1E96C8"/>
</linearGradient>
<clipPath id="clip0_646_2984">
<rect width="37" height="37" fill="white"/>
</clipPath>
</defs>
</svg>
