<svg width="37" height="36" viewBox="0 0 37 36" fill="none" xmlns="http://www.w3.org/2000/svg">
<g clip-path="url(#clip0_646_2976)">
<path d="M18.5 36C28.7172 36 37 27.9411 37 18C37 8.0589 28.7172 0 18.5 0C8.28276 0 0 8.0589 0 18C0 27.9411 8.28276 36 18.5 36Z" fill="#25D366"/>
<path fill-rule="evenodd" clip-rule="evenodd" d="M19.1097 28.0144H19.1052C17.2641 28.0138 15.455 27.5643 13.8482 26.7116L8.0166 28.2L9.57723 22.6536C8.61454 21.0304 8.10802 19.1891 8.10879 17.3027C8.11126 11.4013 13.0461 6.60001 19.1096 6.60001C22.0524 6.60124 24.8144 7.71594 26.8914 9.73906C28.9683 11.7621 30.1115 14.4512 30.1103 17.3111C30.1079 23.2112 25.175 28.012 19.1097 28.0144ZM14.1184 24.7739L14.4523 24.9667C15.8561 25.7773 17.4653 26.2061 19.106 26.2067H19.1097C24.1492 26.2067 28.2509 22.2158 28.2529 17.3105C28.2539 14.9334 27.3038 12.6983 25.5775 11.0168C23.8512 9.33519 21.5555 8.40864 19.1133 8.40781C14.0699 8.40781 9.9682 12.3983 9.96619 17.3033C9.9655 18.9843 10.4489 20.6213 11.3641 22.0377L11.5816 22.3743L10.6579 25.6571L14.1184 24.7739ZM24.2753 19.6155C24.467 19.7057 24.5965 19.7666 24.6518 19.8563C24.7205 19.9679 24.7205 20.5034 24.4915 21.1281C24.2624 21.7529 23.1642 22.323 22.6362 22.3997C22.1626 22.4687 21.5633 22.4974 20.9049 22.2938C20.5056 22.1705 19.9937 22.006 19.3379 21.7304C16.7611 20.6478 15.0196 18.2178 14.6905 17.7585C14.6674 17.7263 14.6513 17.7038 14.6423 17.6921L14.6401 17.6893C14.4947 17.5004 13.52 16.2351 13.52 14.9256C13.52 13.6937 14.1419 13.048 14.4282 12.7508C14.4478 12.7304 14.4659 12.7117 14.482 12.6945C14.734 12.4268 15.0317 12.3598 15.215 12.3598C15.3982 12.3598 15.5816 12.3614 15.7418 12.3693C15.7615 12.3703 15.7821 12.3701 15.8033 12.37C15.9635 12.3691 16.1632 12.368 16.3603 12.8284C16.436 13.0055 16.547 13.2683 16.6639 13.5453C16.9004 14.1056 17.1618 14.7246 17.2077 14.8142C17.2765 14.948 17.3223 15.1042 17.2306 15.2827C17.2169 15.3095 17.2042 15.3347 17.192 15.3589C17.1231 15.4956 17.0726 15.5961 16.9557 15.7289C16.9099 15.781 16.8624 15.8372 16.8149 15.8935C16.7203 16.0055 16.6258 16.1176 16.5435 16.1974C16.4058 16.3307 16.2626 16.4754 16.4229 16.7432C16.5833 17.0109 17.1349 17.8867 17.952 18.5959C18.8305 19.3582 19.5939 19.6804 19.9809 19.8437C20.0564 19.8756 20.1176 19.9014 20.1625 19.9233C20.4373 20.0572 20.5976 20.0348 20.758 19.8563C20.9183 19.6778 21.4451 19.0754 21.6283 18.8077C21.8115 18.5401 21.9948 18.5846 22.2467 18.6738C22.4988 18.7632 23.8501 19.4101 24.125 19.544C24.1787 19.5701 24.2288 19.5937 24.2753 19.6155Z" fill="#FDFDFD"/>
</g>
<defs>
<clipPath id="clip0_646_2976">
<rect width="37" height="36" fill="white"/>
</clipPath>
</defs>
</svg>
